<?xml version="1.0" encoding="iso-8859-1"?>
<!-- Generator: Adobe Illustrator 19.0.0, SVG Export Plug-In . SVG Version: 6.00 Build 0)  -->
<svg version="1.1" id="Capa_1" xmlns="http://www.w3.org/2000/svg" xmlns:xlink="http://www.w3.org/1999/xlink" x="0px" y="0px"
	 viewBox="0 0 511.862 511.862" style="enable-background:new 0 0 511.862 511.862;" xml:space="preserve">
<g>
	<g>
		<path d="M210.779,29.729c-43.661-43.657-119.782-38.568-169.7,11.32c-24.1,24.096-38.584,54.962-40.787,86.909
			c-2.219,32.154,8.257,61.551,29.482,82.776c36.608,36.607,182.412,125.692,256.852,125.692c0.203,0,0.43-0.008,0.64-0.008
			c2.203-0.015,3.985-1.819,3.969-4.023c-0.016-2.204-1.805-3.976-4-3.976c-0.062,0.008-0.414,0.008-0.648,0.008
			c-72.542,0-215.237-87.429-251.156-123.349c-19.57-19.565-29.218-46.758-27.163-76.569c2.07-30.022,15.733-59.071,38.466-81.804
			C93.536-0.073,164.579-5.14,205.123,35.385C241.043,71.3,328.765,214.498,328.46,286.928c-0.008,2.211,1.772,4.008,3.983,4.016
			c0.008,0,0.008,0,0.016,0c2.203,0,3.992-1.781,4-3.984C336.771,212.644,247.386,66.325,210.779,29.729z"/>
	</g>
</g>
<g>
	<g>
		<path d="M295.259,321.192C234.566,309.934,99.825,212.913,63.71,176.798c-25.779-25.78-39.107-59.367-35.654-89.85
			c0.25-2.195-1.328-4.175-3.523-4.425c-2.172-0.219-4.179,1.324-4.429,3.527c-3.719,32.881,10.467,68.922,37.95,96.404
			c36.623,36.627,173.669,135.082,235.752,146.606c0.242,0.046,0.492,0.062,0.734,0.062c1.891,0,3.569-1.343,3.921-3.266
			C298.867,323.684,297.431,321.59,295.259,321.192z"/>
	</g>
</g>
<g>
	<g>
		<path d="M329.062,293.531C317.351,231.35,219.005,94.515,182.492,58.009c-27.569-27.58-63.73-41.751-96.642-37.915
			c-2.196,0.254-3.766,2.242-3.516,4.433c0.258,2.195,2.25,3.745,4.437,3.511c30.569-3.558,64.207,9.762,90.065,35.627
			c36.006,36.002,132.914,170.544,144.366,231.35c0.36,1.922,2.039,3.257,3.922,3.257c0.25,0,0.5-0.024,0.75-0.07
			C328.046,297.797,329.468,295.703,329.062,293.531z"/>
	</g>
</g>
<g>
	<g>
		<path d="M305.195,312.864C258.37,287.327,133.901,179.107,97.653,142.863c-25.85-25.854-45.755-54.77-51.927-75.468
			c-0.641-2.11-2.883-3.329-4.976-2.688c-2.117,0.633-3.32,2.86-2.695,4.977c6.64,22.221,26.803,51.692,53.942,78.835
			c36.482,36.482,161.974,145.519,209.37,171.369c0.609,0.328,1.266,0.484,1.914,0.484c1.414,0,2.789-0.75,3.516-2.086
			C307.851,316.348,307.133,313.919,305.195,312.864z"/>
	</g>
</g>
<g>
	<g>
		<path d="M319.821,301.156c-25.975-47.494-134.875-172.818-171.263-209.203c-27.163-27.17-56.654-47.341-78.886-53.95
			c-2.133-0.613-4.344,0.582-4.977,2.695c-0.625,2.117,0.578,4.343,2.695,4.976c20.701,6.152,49.637,26.053,75.51,51.934
			c36.147,36.151,144.242,160.464,169.904,207.383c0.727,1.328,2.094,2.078,3.508,2.078c0.648,0,1.312-0.157,1.923-0.491
			C320.173,305.523,320.883,303.094,319.821,301.156z"/>
	</g>
</g>
<g>
	<g>
		<path d="M502.51,457.216L355.02,309.725c-1.562-1.562-4.094-1.562-5.656,0l-39.591,39.591c-1.562,1.562-1.562,4.094,0,5.656
			l147.484,147.482c0.78,0.781,1.804,1.172,2.827,1.172c1.023,0,2.047-0.39,2.827-1.172c1.562-1.561,1.562-4.093,0-5.655
			L318.256,352.144l33.936-33.936l144.663,144.663c1.562,1.562,4.093,1.562,5.655,0S504.072,458.778,502.51,457.216z"/>
	</g>
</g>
<g>
	<g>
		<path d="M343.708,298.412c-1.562-1.562-4.093-1.562-5.655,0l-39.6,39.592c-1.562,1.562-1.562,4.093,0,5.655
			c0.781,0.781,1.805,1.172,2.828,1.172c1.024,0,2.047-0.39,2.828-1.172l39.599-39.591
			C345.27,302.506,345.27,299.974,343.708,298.412z"/>
	</g>
</g>
<g>
	<g>
		<path d="M309.766,343.66l-5.656-5.655c-1.562-1.562-4.094-1.562-5.656,0s-1.562,4.093,0,5.655l5.656,5.656
			c0.781,0.781,1.805,1.172,2.828,1.172s2.046-0.391,2.828-1.172C311.328,347.754,311.328,345.222,309.766,343.66z"/>
	</g>
</g>
<g>
	<g>
		<path d="M349.364,304.069l-5.656-5.656c-1.562-1.562-4.093-1.562-5.655,0s-1.562,4.094,0,5.656l5.655,5.656
			c0.781,0.78,1.805,1.171,2.828,1.171c1.024,0,2.047-0.391,2.828-1.171C350.926,308.163,350.926,305.631,349.364,304.069z"/>
	</g>
</g>
<g>
	<g>
		<path d="M502.51,457.217c-1.561-1.562-4.093-1.555-5.655,0c-1.562,1.561-1.562,4.093,0,5.655c9.351,9.367,9.351,24.585,0,33.936
			c-9.358,9.35-24.585,9.35-33.943-0.008c-1.562-1.562-4.093-1.562-5.655,0s-1.562,4.093,0,5.655
			c6.241,6.242,14.436,9.367,22.631,9.367s16.389-3.118,22.622-9.359C514.979,490.003,514.979,469.7,502.51,457.217z"/>
	</g>
</g>
<g>
	<g>
		<path d="M315.429,332.348l-2.836-2.827c-1.562-1.554-4.101-1.562-5.663,0.008c-1.554,1.561-1.554,4.093,0.008,5.655l2.836,2.828
			c0.78,0.773,1.804,1.164,2.827,1.164s2.054-0.391,2.836-1.172C316.991,336.442,316.991,333.903,315.429,332.348z"/>
	</g>
</g>
<g>
	<g>
		<path d="M326.741,321.037l-2.828-2.828c-1.562-1.562-4.094-1.562-5.656,0s-1.562,4.094,0,5.656l2.828,2.828
			c0.781,0.781,1.805,1.172,2.828,1.172c1.024,0,2.047-0.391,2.828-1.172C328.303,325.131,328.303,322.599,326.741,321.037z"/>
	</g>
</g>
<g>
	<g>
		<path d="M338.053,309.725l-2.828-2.828c-1.562-1.562-4.093-1.562-5.655,0s-1.562,4.093,0,5.655l2.827,2.828
			c0.781,0.781,1.805,1.172,2.828,1.172c1.023,0,2.046-0.391,2.828-1.172C339.615,313.818,339.615,311.287,338.053,309.725z"/>
	</g>
</g>
<g>
	<g>
		<path d="M491.199,468.528L355.02,332.348c-1.562-1.562-4.094-1.562-5.656,0s-1.562,4.094,0,5.656l136.18,136.179
			c0.781,0.781,1.805,1.172,2.828,1.172c1.024,0,2.046-0.391,2.827-1.172C492.761,472.621,492.761,470.09,491.199,468.528z"/>
	</g>
</g>
<g>
	<g>
		<path d="M491.199,468.529c-1.561-1.562-4.093-1.562-5.655,0c-1.562,1.561-1.562,4.093,0,5.655c3.117,3.117,3.117,8.195,0,11.312
			c-1.562,1.562-1.562,4.093,0,5.655c0.781,0.781,1.805,1.172,2.828,1.172c1.024,0,2.046-0.391,2.827-1.171
			C497.433,484.919,497.433,474.77,491.199,468.529z"/>
	</g>
</g>
<g>
</g>
<g>
</g>
<g>
</g>
<g>
</g>
<g>
</g>
<g>
</g>
<g>
</g>
<g>
</g>
<g>
</g>
<g>
</g>
<g>
</g>
<g>
</g>
<g>
</g>
<g>
</g>
<g>
</g>
</svg>
